HIERARCHY
ROOT Pelvis
{
	OFFSET 0.000000 0.000000 0.000000
	CHANNELS 6 Xposition Yposition Zposition Xrotation Yrotation Zrotation
	JOINT LeftUpLeg_virtual
	{
		OFFSET 0.000000 0.000000 0.000000
		CHANNELS 3 Xrotation Yrotation Zrotation
		JOINT LeftUpLeg
		{
			OFFSET 18.735201 -5.666702 -4.541200
			CHANNELS 3 Xrotation Yrotation Zrotation
			JOINT LeftLeg
			{
				OFFSET -0.021200 -31.938179 0.493100
				CHANNELS 3 Xrotation Yrotation Zrotation
				JOINT LeftFoot
				{
					OFFSET 0.021200 -31.938179 -4.336299
					CHANNELS 3 Xrotation Yrotation Zrotation
					JOINT LeftToeBase
					{
						OFFSET 0.943001 -26.722000 15.023500
						CHANNELS 3 Xrotation Yrotation Zrotation
						End Site
						{
							OFFSET 0 0 0
						}
					}
				}
			}
		}
	}
	JOINT RightUpLeg_virtual
	{
		OFFSET 0.000000 0.000000 0.000000
		CHANNELS 3 Xrotation Yrotation Zrotation
		JOINT RightUpLeg
		{
			OFFSET -18.735201 -5.666702 -4.541200
			CHANNELS 3 Xrotation Yrotation Zrotation
			JOINT RightLeg
			{
				OFFSET 0.018946 -31.938133 0.493100
				CHANNELS 3 Xrotation Yrotation Zrotation
				JOINT RightFoot
				{
					OFFSET -0.018946 -31.938126 -4.336299
					CHANNELS 3 Xrotation Yrotation Zrotation
					JOINT RightToeBase
					{
						OFFSET -0.943001 -26.722004 15.023500
						CHANNELS 3 Xrotation Yrotation Zrotation
						End Site
						{
							OFFSET 0 0 0
						}
					}
				}
			}
		}
	}
	JOINT Hips_virtual
	{
		OFFSET 0.000000 0.000000 0.000000
		CHANNELS 3 Xrotation Yrotation Zrotation
		JOINT Hips
		{
			OFFSET -0.000000 -0.000000 -0.000000
			CHANNELS 3 Xrotation Yrotation Zrotation
			JOINT Spine
			{
				OFFSET 0.000000 10.199997 -0.299500
				CHANNELS 3 Xrotation Yrotation Zrotation
				JOINT Spine1
				{
					OFFSET 0.000000 11.900002 -1.516600
					CHANNELS 3 Xrotation Yrotation Zrotation
					JOINT Spine2
					{
						OFFSET 0.000000 13.600006 -2.842500
						CHANNELS 3 Xrotation Yrotation Zrotation
						JOINT Neck_virtual
						{
							OFFSET 0.000000 0.000000 0.000000
							CHANNELS 3 Xrotation Yrotation Zrotation
							JOINT Neck
							{
								OFFSET 0.000000 9.624100 -2.890100
								CHANNELS 3 Xrotation Yrotation Zrotation
								JOINT Head
								{
									OFFSET 0.000000 14.068802 -1.351900
									CHANNELS 3 Xrotation Yrotation Zrotation
									End Site
									{
										OFFSET 0 0 0
									}
								}
							}
						}
						JOINT LeftShoulder_virtual
						{
							OFFSET 0.000000 0.000000 0.000000
							CHANNELS 3 Xrotation Yrotation Zrotation
							JOINT LeftShoulder
							{
								OFFSET 15.263000 10.923401 -0.547700
								CHANNELS 3 Xrotation Yrotation Zrotation
								JOINT LeftArm
								{
									OFFSET 25.438599 -2.830597 -13.032500
									CHANNELS 3 Xrotation Yrotation Zrotation
									JOINT LeftForeArm
									{
										OFFSET 29.960503 0.000000 0.000000
										CHANNELS 3 Xrotation Yrotation Zrotation
										JOINT LeftHand
										{
											OFFSET 27.849251 0.000000 0.000000
											CHANNELS 3 Xrotation Yrotation Zrotation
											End Site
											{
												OFFSET 0 0 0
											}
										}
									}
								}
							}
						}
						JOINT RightShoulder_virtual
						{
							OFFSET 0.000000 0.000000 0.000000
							CHANNELS 3 Xrotation Yrotation Zrotation
							JOINT RightShoulder
							{
								OFFSET -15.263000 10.923401 -0.547700
								CHANNELS 3 Xrotation Yrotation Zrotation
								JOINT RightArm
								{
									OFFSET -25.438599 -2.830597 -13.032500
									CHANNELS 3 Xrotation Yrotation Zrotation
									JOINT RightForeArm
									{
										OFFSET -29.960503 0.000000 0.000000
										CHANNELS 3 Xrotation Yrotation Zrotation
										JOINT RightHand
										{
											OFFSET -27.849251 0.000000 0.000000
											CHANNELS 3 Xrotation Yrotation Zrotation
											End Site
											{
												OFFSET 0 0 0
											}
										}
									}
								}
							}
						}
					}
				}
			}
		}
	}
}
MOTION
Frames: 5
Frame Time: 0.03333333
-2.181540 93.140915 1.893990 0.000000 0.000000 0.000000 6.737564 -15.916834 -0.616095 -32.875517 7.313265 14.758237 33.262229 4.192031 -1.574203 -13.992620 5.113759 -4.970887 0.000000 0.000000 0.000000 10.273993 -11.975101 2.046307 -17.136835 -9.309295 -14.306723 30.109687 5.188202 -0.782055 -18.291049 1.434401 13.004806 0.000000 0.000000 0.000000 -0.627447 -16.998348 0.833618 6.308615 -6.509707 -0.447206 6.803749 -0.966994 0.563628 1.624892 -0.661297 0.132345 0.000000 0.000000 0.000000 -0.363544 2.377192 0.150807 -1.494392 2.186690 -0.427791 0.000000 0.000000 0.000000 1.150615 -0.867498 1.761139 0.332940 -7.360675 0.319669 -39.126571 -11.286056 -38.179043 -9.389002 -55.345798 -2.446884 0.000000 0.000000 0.000000 3.207424 -1.055907 1.318692 2.973619 5.581681 9.444131 11.650116 -0.848095 51.106658 6.536173 36.015232 1.009113 0.000000 0.000000 0.000000 
-1.198634 92.814400 2.325645 0.000000 0.000000 0.000000 6.741168 -16.939216 -0.281960 -32.874957 6.953186 14.973364 32.656077 4.230493 -1.841469 -14.462639 5.311012 -5.446154 0.000000 0.000000 0.000000 10.232682 -12.573525 2.184310 -17.195694 -9.507318 -14.202239 29.808926 5.370916 -0.988886 -18.717486 1.676289 12.677616 0.000000 0.000000 0.000000 -1.944021 -19.740555 0.256924 6.269601 -4.854192 -1.450478 6.543691 -1.197416 0.345360 1.441681 -0.408380 0.362986 0.000000 0.000000 0.000000 -0.392599 2.415749 0.081809 -1.435920 2.472034 -0.532885 0.000000 0.000000 0.000000 0.378629 -1.126664 1.778550 0.786461 -6.977497 -0.160760 -41.050806 -12.832015 -39.409348 -9.950194 -56.946388 -3.676467 0.000000 0.000000 0.000000 2.704304 -0.891572 1.399928 2.857311 6.979338 9.538085 12.455941 -2.273033 50.628805 6.236062 36.151092 1.098076 0.000000 0.000000 0.000000 
-0.935806 92.982086 2.758921 0.000000 0.000000 0.000000 6.934535 -17.868412 -0.401351 -32.827105 6.872070 14.791594 32.500270 4.475660 -1.870167 -14.655750 5.596907 -5.401610 0.000000 0.000000 0.000000 10.504754 -12.614372 1.884537 -16.759469 -9.489204 -14.558893 29.696665 5.624750 -1.353584 -18.901387 2.134454 12.158904 0.000000 0.000000 0.000000 -0.166552 -19.670202 1.451127 3.261205 -2.151215 -3.018450 8.148654 -1.869459 -0.133737 1.362295 -0.759039 0.701724 0.000000 0.000000 0.000000 -0.012623 2.204948 0.379666 -1.415350 2.605866 -0.582186 0.000000 0.000000 0.000000 0.403462 -1.302561 1.932590 1.102584 -8.574219 -0.243184 -40.912464 -17.033271 -39.520462 -9.456878 -58.596207 -3.984264 0.000000 0.000000 0.000000 2.524102 -1.132585 1.721914 3.159261 5.909227 9.504533 13.961143 -3.920162 50.832546 5.997811 35.069374 0.998818 0.000000 0.000000 0.000000 
-1.300037 93.038078 2.878126 0.000000 0.000000 0.000000 7.514903 -17.966224 -0.392833 -32.523448 7.051127 14.902742 33.042966 4.338865 -1.870291 -14.259663 5.467452 -5.516620 0.000000 0.000000 0.000000 10.630645 -12.900670 2.019845 -16.681936 -9.575512 -14.454092 30.363968 5.627622 -1.537247 -18.424609 2.292592 11.878806 0.000000 0.000000 0.000000 -1.014768 -19.742457 0.618666 7.709436 -3.867929 -3.566411 7.092915 -1.794272 0.308335 1.540444 -0.267092 0.521238 0.000000 0.000000 0.000000 -0.035222 2.350168 0.554069 -1.243650 2.616728 -0.605040 0.000000 0.000000 0.000000 0.399250 -1.295268 1.745160 0.691886 -6.772458 -0.342456 -42.222204 -15.942391 -37.990759 -9.704187 -58.553777 -4.273065 0.000000 0.000000 0.000000 2.510896 -0.518753 1.861645 3.172177 7.652383 10.456831 12.321573 -2.411543 50.971697 5.414130 37.353225 1.538631 0.000000 0.000000 0.000000 
-1.093611 93.486099 2.029940 0.000000 0.000000 0.000000 6.961809 -18.090792 -0.537599 -33.049810 6.914118 14.777869 32.899280 4.528115 -1.747236 -14.246695 5.610801 -5.238701 0.000000 0.000000 0.000000 10.057429 -12.872502 2.159989 -17.535956 -9.504498 -14.248099 30.171452 5.722497 -1.626156 -18.604942 2.430095 11.734308 0.000000 0.000000 0.000000 0.015599 -19.039128 1.013206 5.248859 -3.109279 -2.919972 7.465519 -1.575947 -0.433467 0.936586 -0.310364 0.626862 0.000000 0.000000 0.000000 -0.191836 2.010792 0.433711 -1.382046 2.736146 -0.750618 0.000000 0.000000 0.000000 0.578064 -1.594598 1.818853 0.780251 -6.638418 -1.025086 -42.847826 -17.406887 -37.122092 -9.359675 -58.289524 -4.327622 0.000000 0.000000 0.000000 2.135096 -0.618247 2.132265 3.630765 8.627337 10.094166 13.688398 -3.792749 50.665698 5.383111 39.217867 1.406676 0.000000 0.000000 0.000000 
